<svg width="196px" height="48px" viewBox="0 0 196 48" xmlns="http://www.w3.org/2000/svg" xmlns:xlink="http://www.w3.org/1999/xlink">
  <defs>
    <polygon id="path-1" points="20.3681692 0.260662252 0 12.1138013 0 35.8289801 20.3688 47.6821192 40.7372846 35.8194437 40.7372846 12.1138013 20.3694308 0.260662252"></polygon>
    <linearGradient x1="10.5546792%" y1="84.1438098%" x2="89.4340553%" y2="15.846368%" id="linearGradient-3">
      <stop stop-color="#A050FF" offset="0%"></stop>
      <stop stop-color="#6464FF" offset="100%"></stop>
    </linearGradient>
  </defs>
  <g id="Home" stroke="none" stroke-width="1" fill="none" fill-rule="evenodd">
    <g id="Home-Black-V1" transform="translate(-32.000000, -24.000000)">
      <g id="Group-4">
        <g id="Group-11" transform="translate(32.000000, 24.000000)">
          <g id="Group-8">
            <g id="Group-3" transform="translate(0.000000, 0.057219)">
              <mask id="mask-2" fill="white">
                <use xlink:href="#path-1"></use>
              </mask>
              <g id="Clip-2"></g>
              <polygon id="Fill-1" fill="url(#linearGradient-3)" mask="url(#mask-2)" points="20.3681692 0.260662252 0 12.1138013 0 35.8289801 20.3688 47.6821192 40.7372846 35.8194437 40.7372846 12.1138013 20.3694308 0.260662252"></polygon>
            </g>
            <polygon id="Fill-4" fill="#46A0FF" style="mix-blend-mode: screen;" points="0 35.8862305 20.3688 47.7393695 40.7372846 35.876694"></polygon>
            <polygon id="Fill-5" fill="#46A0FF" style="mix-blend-mode: screen;" points="0 35.8862305 20.3688 47.7393695 40.7372846 12.1710517"></polygon>
            <polygon id="Fill-6" fill="#46A0FF" style="mix-blend-mode: screen;" points="20.3686423 0.318039735 0.000157692308 35.8863576 20.3689577 47.7391788 20.3689577 0.318039735"></polygon>
            <polygon id="Fill-7" fill="#46A0FF" style="mix-blend-mode: screen;" points="0 35.8862305 20.3688 47.7393695 0 12.1710517"></polygon>
          </g>
          <g id="sipios-logo-text" transform="translate(57.000000, 13.000000)" fill="#FFFFFF">
            <path d="M12.5909785,21.9998743 C2.95154864,21.9998743 0.000157239819,18.4009886 0.000157239819,14.8291314 L5.4695871,14.8291314 C5.4695871,16.5878743 7.87944457,17.9138457 12.8347002,17.9138457 C17.7625962,17.9138457 19.0623405,17.0476743 19.0623405,15.6409314 C19.0623405,14.0710743 18.0877681,13.5842457 13.5114604,13.0700743 C12.6180238,12.9889886 10.1540758,12.69136 9.23327941,12.5559029 C2.73487217,11.8251886 0.24356448,9.90396 0.24356448,6.46724571 C0.24356448,2.84101714 3.89907579,0.107988571 11.8327681,0.107988571 C20.4432206,0.107988571 23.7468292,3.49033143 23.7468292,7.00844571 L18.3311753,7.00844571 C18.3311753,5.22267429 16.3005803,4.19433143 11.5079106,4.19433143 C6.57970023,4.19433143 5.5236776,4.87098857 5.5236776,6.19696 C5.5236776,7.57667429 6.60674548,8.00944571 11.8327681,8.63236 C13.024017,8.79421714 15.6779106,9.09216 16.4087613,9.17324571 C21.9325962,9.74147429 24.4239038,11.7441029 24.4239038,15.2886171 C24.4239038,19.5104171 20.6325373,21.9998743 12.5909785,21.9998743" id="Fill-1"></path>
            <polygon id="Fill-3" points="30.6391222 21.6753429 35.8651448 21.6753429 35.8651448 0.432771429 30.6391222 0.432771429"></polygon>
            <path d="M64.6635233,2.57032286 C63.4452292,1.16326571 61.1976432,0.432551429 58.0839803,0.432551429 L43.2996636,0.432551429 L43.2996636,21.6754371 L48.4171907,21.6754371 L48.3901455,4.59998 L57.0276432,4.59998 C59.0047767,4.59998 60.1686658,5.06040857 60.7105143,5.87220857 C60.9539215,6.25092286 61.0894622,6.98132286 61.0894622,7.87452286 C61.0894622,8.71335143 61.0083265,9.33563714 60.7105143,9.79575143 C60.1957111,10.63458 59.0859124,11.0676657 56.9738672,11.0676657 L52.8010369,11.0676657 L50.2864577,15.3237229 C50.2864577,15.3237229 57.6455957,15.3432086 58.0839803,15.3432086 C61.3061387,15.31618 63.5807699,14.5317229 64.9075595,12.7996943 C65.8009962,11.6902657 66.2613943,10.0666657 66.2613943,7.90155143 C66.2613943,5.41178 65.6384102,3.65272286 64.6635233,2.57032286" id="Fill-5"></path>
            <path d="M103.252408,15.6948 C104.335476,14.6397429 104.741783,12.8533429 104.741783,11.0135143 C104.741783,9.14634286 104.335476,7.3062 103.279453,6.33191429 C101.817123,5.00594286 100.00289,4.22117143 96.5914145,4.22117143 C93.3422109,4.22117143 91.2301656,5.08734286 89.9845118,6.38597143 C89.0369846,7.41431429 88.5221814,9.119 88.5221814,11.0135143 C88.5221814,13.0698857 89.0096249,14.8289429 90.3093692,15.9383714 C91.7716995,17.1832571 93.6129778,17.8328857 96.6184597,17.8328857 C99.8950231,17.8328857 101.817123,17.1021714 103.252408,15.6948 M107.530589,3.67997143 C109.263686,5.52042857 109.940446,7.8474 109.940446,10.9324286 C109.940446,14.1255714 109.074055,16.5339429 107.503543,18.3200286 C105.418543,20.7554286 101.682211,22 96.6184597,22 C91.6632041,22 88.143548,20.7013714 85.9230072,18.3740857 C84.2172697,16.588 83.2967878,14.1526 83.2967878,10.9324286 C83.2967878,8.0366 84.027324,5.70962857 85.7066452,3.89651429 C88.1702787,1.24457143 91.5009326,0 96.6184597,0 C101.735987,0 105.174822,1.21754286 107.530589,3.67997143" id="Fill-6"></path>
            <path d="M127.149149,21.9998743 C117.509719,21.9998743 114.558328,18.4009886 114.558328,14.8291314 L120.027758,14.8291314 C120.027758,16.5878743 122.437615,17.9138457 127.392871,17.9138457 C132.320767,17.9138457 133.620511,17.0476743 133.620511,15.6409314 C133.620511,14.0710743 132.645939,13.5842457 128.069631,13.0700743 C127.176195,12.9889886 124.712247,12.69136 123.79145,12.5559029 C117.293043,11.8251886 114.801735,9.90396 114.801735,6.46724571 C114.801735,2.84101714 118.457247,0.107988571 126.390939,0.107988571 C135.001391,0.107988571 138.305,3.49033143 138.305,7.00844571 L132.889346,7.00844571 C132.889346,5.22267429 130.858751,4.19433143 126.066081,4.19433143 C121.137871,4.19433143 120.081848,4.87098857 120.081848,6.19696 C120.081848,7.57667429 121.164916,8.00944571 126.390939,8.63236 C127.582188,8.79421714 130.236081,9.09216 130.966932,9.17324571 C136.490767,9.74147429 138.982075,11.7441029 138.982075,15.2886171 C138.982075,19.5104171 135.190708,21.9998743 127.149149,21.9998743" id="Fill-7"></path>
            <polygon id="Fill-8" points="72.1793665 21.6753429 77.4053891 21.6753429 77.4053891 0.432771429 72.1793665 0.432771429"></polygon>
          </g>
        </g>
      </g>
    </g>
  </g>
</svg>
